<svg xmlns="http://www.w3.org/2000/svg" xmlns:xlink="http://www.w3.org/1999/xlink" id="visual" version="1.1" viewBox="0 523.76 900 77.24"><path d="M0 552L21.5 552.7C43 553.3 86 554.7 128.8 556.2C171.7 557.7 214.3 559.3 257.2 558.3C300 557.3 343 553.7 385.8 545.5C428.7 537.3 471.3 524.7 514.2 523.8C557 523 600 534 642.8 542.5C685.7 551 728.3 557 771.2 554.5C814 552 857 541 878.5 535.5L900 530L900 601L878.5 601C857 601 814 601 771.2 601C728.3 601 685.7 601 642.8 601C600 601 557 601 514.2 601C471.3 601 428.7 601 385.8 601C343 601 300 601 257.2 601C214.3 601 171.7 601 128.8 601C86 601 43 601 21.5 601L0 601Z" fill="#0d6efd" stroke-linecap="round" stroke-linejoin="miter"/></svg>