<svg xmlns="http://www.w3.org/2000/svg" xmlns:xlink="http://www.w3.org/1999/xlink" id="visual" version="1.1" viewBox="0 256 900 145"><path d="M0 256L21.5 271.2C43 286.3 86 316.7 128.8 321.8C171.7 327 214.3 307 257.2 296C300 285 343 283 385.8 285C428.7 287 471.3 293 514.2 299.2C557 305.3 600 311.7 642.8 315.7C685.7 319.7 728.3 321.3 771.2 322.8C814 324.3 857 325.7 878.5 326.3L900 327L900 401L878.5 401C857 401 814 401 771.2 401C728.3 401 685.7 401 642.8 401C600 401 557 401 514.2 401C471.3 401 428.7 401 385.8 401C343 401 300 401 257.2 401C214.3 401 171.7 401 128.8 401C86 401 43 401 21.5 401L0 401Z" fill="#ffffff" stroke-linecap="round" stroke-linejoin="miter"/></svg>