<svg width="173" height="69" viewBox="0 0 173 69" fill="none" xmlns="http://www.w3.org/2000/svg">
<rect x="1.35" y="1.35" width="170.3" height="66.3" rx="33.15" fill="#4F4F4F" stroke="url(#paint0_linear_1_43)" stroke-width="1.3"/>
<mask id="mask0_1_43" style="mask-type:alpha" maskUnits="userSpaceOnUse" x="2" y="2" width="169" height="65">
<rect x="2" y="2" width="169" height="65" rx="32.5" fill="black"/>
</mask>
<g mask="url(#mask0_1_43)">
<g filter="url(#filter0_i_1_43)">
<rect x="2" y="2" width="169" height="65" rx="32.5" fill="#1F2533"/>
</g>
<path d="M16.95 21.5L17.4767 22.9233L18.9 23.45L17.4767 23.9767L16.95 25.4L16.4233 23.9767L15 23.45L16.4233 22.9233L16.95 21.5Z" fill="#DEE5F3"/>
<path d="M40.35 31.9L40.8766 33.3233L42.3 33.85L40.8766 34.3767L40.35 35.8L39.8233 34.3767L38.4 33.85L39.8233 33.3233L40.35 31.9Z" fill="#DEE5F3"/>
<path d="M22.15 55.3L22.6766 56.7233L24.1 57.25L22.6766 57.7767L22.15 59.2L21.6233 57.7767L20.2 57.25L21.6233 56.7233L22.15 55.3Z" fill="#DEE5F3"/>
<path d="M28.65 35.8L28.8256 36.2744L29.3 36.45L28.8256 36.6256L28.65 37.1L28.4744 36.6256L28 36.45L28.4744 36.2744L28.65 35.8Z" fill="#DEE5F3"/>
<path d="M18.25 44.9L18.4255 45.3744L18.9 45.55L18.4255 45.7256L18.25 46.2L18.0744 45.7256L17.6 45.55L18.0744 45.3744L18.25 44.9Z" fill="#DEE5F3"/>
<path d="M32.875 57.9L33.1383 58.6117L33.85 58.875L33.1383 59.1383L32.875 59.85L32.6116 59.1383L31.9 58.875L32.6116 58.6117L32.875 57.9Z" fill="#DEE5F3"/>
<g filter="url(#filter1_f_1_43)">
<path d="M15.975 31.9L16.2383 32.6117L16.95 32.875L16.2383 33.1383L15.975 33.85L15.7117 33.1383L15 32.875L15.7117 32.6117L15.975 31.9Z" fill="#DEE5F3"/>
</g>
<path d="M10.45 51.4L10.6255 51.8744L11.1 52.05L10.6255 52.2256L10.45 52.7L10.2744 52.2256L9.79999 52.05L10.2744 51.8744L10.45 51.4Z" fill="#DEE5F3"/>
<path d="M42.95 48.8L43.1255 49.2744L43.6 49.45L43.1255 49.6256L42.95 50.1L42.7744 49.6256L42.3 49.45L42.7744 49.2744L42.95 48.8Z" fill="#DEE5F3"/>
<path d="M31.25 15L31.4255 15.4744L31.9 15.65L31.4255 15.8256L31.25 16.3L31.0744 15.8256L30.6 15.65L31.0744 15.4744L31.25 15Z" fill="#DEE5F3"/>
<path d="M5.24998 35.8L5.42553 36.2744L5.89998 36.45L5.42553 36.6256L5.24998 37.1L5.07442 36.6256L4.59998 36.45L5.07442 36.2744L5.24998 35.8Z" fill="#DEE5F3"/>
<path d="M50.75 8.5L51.2767 9.92332L52.7 10.45L51.2767 10.9767L50.75 12.4L50.2233 10.9767L48.8 10.45L50.2233 9.92332L50.75 8.5Z" fill="#DEE5F3"/>
<path d="M80.65 21.5L81.1766 22.9233L82.6 23.45L81.1766 23.9767L80.65 25.4L80.1233 23.9767L78.7 23.45L80.1233 22.9233L80.65 21.5Z" fill="#DEE5F3"/>
<path d="M62.45 51.4L62.9767 52.8233L64.4 53.35L62.9767 53.8767L62.45 55.3L61.9233 53.8767L60.5 53.35L61.9233 52.8233L62.45 51.4Z" fill="#DEE5F3"/>
<path d="M68.95 25.4L69.1255 25.8744L69.6 26.05L69.1255 26.2256L68.95 26.7L68.7744 26.2256L68.3 26.05L68.7744 25.8744L68.95 25.4Z" fill="#DEE5F3"/>
<path d="M63.75 39.7L63.9255 40.1744L64.4 40.35L63.9255 40.5256L63.75 41L63.5744 40.5256L63.1 40.35L63.5744 40.1744L63.75 39.7Z" fill="#DEE5F3"/>
<path d="M70.575 33.2L70.8383 33.9117L71.55 34.175L70.8383 34.4383L70.575 35.15L70.3116 34.4383L69.6 34.175L70.3116 33.9117L70.575 33.2Z" fill="#DEE5F3"/>
<g filter="url(#filter2_f_1_43)">
<path d="M56.275 21.5L56.5383 22.2117L57.25 22.475L56.5383 22.7383L56.275 23.45L56.0116 22.7383L55.3 22.475L56.0116 22.2117L56.275 21.5Z" fill="#DEE5F3"/>
</g>
<g filter="url(#filter3_f_1_43)">
<path d="M50.75 39.7L50.9255 40.1744L51.4 40.35L50.9255 40.5256L50.75 41L50.5744 40.5256L50.1 40.35L50.5744 40.1744L50.75 39.7Z" fill="#DEE5F3"/>
</g>
<path d="M83.25 38.4L83.4255 38.8744L83.9 39.05L83.4255 39.2256L83.25 39.7L83.0744 39.2256L82.6 39.05L83.0744 38.8744L83.25 38.4Z" fill="#DEE5F3"/>
<path d="M76.75 12.4L76.9255 12.8744L77.4 13.05L76.9255 13.2256L76.75 13.7L76.5744 13.2256L76.1 13.05L76.5744 12.8744L76.75 12.4Z" fill="#DEE5F3"/>
<path d="M45.55 25.4L45.7255 25.8744L46.2 26.05L45.7255 26.2256L45.55 26.7L45.3744 26.2256L44.9 26.05L45.3744 25.8744L45.55 25.4Z" fill="#DEE5F3"/>
</g>
<defs>
<filter id="filter0_i_1_43" x="2" y="2" width="169" height="72.8" filterUnits="userSpaceOnUse" color-interpolation-filters="sRGB">
<feFlood flood-opacity="0" result="BackgroundImageFix"/>
<feBlend mode="normal" in="SourceGraphic" in2="BackgroundImageFix" result="shape"/>
<feColorMatrix in="SourceAlpha" type="matrix" values="0 0 0 0 0 0 0 0 0 0 0 0 0 0 0 0 0 0 127 0" result="hardAlpha"/>
<feOffset dy="7.8"/>
<feGaussianBlur stdDeviation="5.85"/>
<feComposite in2="hardAlpha" operator="arithmetic" k2="-1" k3="1"/>
<feColorMatrix type="matrix" values="0 0 0 0 0.0903125 0 0 0 0 0.105719 0 0 0 0 0.141667 0 0 0 1 0"/>
<feBlend mode="normal" in2="shape" result="effect1_innerShadow_1_43"/>
</filter>
<filter id="filter1_f_1_43" x="14.74" y="31.64" width="2.47001" height="2.47" filterUnits="userSpaceOnUse" color-interpolation-filters="sRGB">
<feFlood flood-opacity="0" result="BackgroundImageFix"/>
<feBlend mode="normal" in="SourceGraphic" in2="BackgroundImageFix" result="shape"/>
<feGaussianBlur stdDeviation="0.13" result="effect1_foregroundBlur_1_43"/>
</filter>
<filter id="filter2_f_1_43" x="55.04" y="21.24" width="2.47001" height="2.47" filterUnits="userSpaceOnUse" color-interpolation-filters="sRGB">
<feFlood flood-opacity="0" result="BackgroundImageFix"/>
<feBlend mode="normal" in="SourceGraphic" in2="BackgroundImageFix" result="shape"/>
<feGaussianBlur stdDeviation="0.13" result="effect1_foregroundBlur_1_43"/>
</filter>
<filter id="filter3_f_1_43" x="49.84" y="39.44" width="1.81999" height="1.82" filterUnits="userSpaceOnUse" color-interpolation-filters="sRGB">
<feFlood flood-opacity="0" result="BackgroundImageFix"/>
<feBlend mode="normal" in="SourceGraphic" in2="BackgroundImageFix" result="shape"/>
<feGaussianBlur stdDeviation="0.13" result="effect1_foregroundBlur_1_43"/>
</filter>
<linearGradient id="paint0_linear_1_43" x1="88.45" y1="-13.6" x2="89.1" y2="87.15" gradientUnits="userSpaceOnUse">
<stop offset="0.125"/>
<stop offset="1" stop-color="white" stop-opacity="0"/>
</linearGradient>
</defs>
</svg>
